<svg width="615" height="409" viewBox="0 0 615 409" fill="none" xmlns="http://www.w3.org/2000/svg">
<g clip-path="url(#clip0_3_24)">
<path d="M373.575 214.658C376.287 215.412 379.181 215.144 381.709 213.905C384.237 212.666 386.223 210.543 387.291 207.936C388.358 205.33 388.434 202.423 387.502 199.765C386.571 197.107 384.698 194.883 382.237 193.515L357.833 165.808L337.191 170.27L366.223 198.727C365.509 200.24 365.136 201.891 365.129 203.564C365.122 205.237 365.481 206.891 366.182 208.41C366.883 209.929 367.908 211.275 369.186 212.355C370.463 213.434 371.961 214.22 373.575 214.658Z" fill="#A0616A"/>
<path d="M293.283 115.465L354.11 191.871L372.651 183.352L301.156 71.9669L293.283 115.465Z" fill="#3F3D56"/>
<path d="M569.811 379.534C573.623 372.134 571.552 362.797 566.807 355.957C562.062 349.118 555.055 344.244 548.202 339.522L538.674 332.956L543.225 355.817C544.761 363.546 546.655 371.893 552.687 376.959C555.056 378.902 557.884 380.202 560.901 380.734C563.917 381.266 567.019 381.011 569.909 379.995" fill="#E6E6E6"/>
<path d="M569.091 407.671C569.042 407.846 568.926 407.995 568.768 408.084C568.61 408.174 568.424 408.198 568.248 408.15C568.076 408.098 567.931 407.981 567.842 407.824C567.753 407.667 567.727 407.482 567.77 407.307C568.301 403.436 568.828 399.562 569.076 395.662C569.491 389.212 569.108 382.593 566.722 376.522C564.562 371.062 560.726 366.429 555.765 363.292C555.021 362.823 555.709 361.638 556.457 362.109C559.324 363.916 561.854 366.211 563.933 368.888C567.85 373.942 569.773 380.106 570.374 386.416C571.051 393.522 570.059 400.642 569.094 407.672L569.091 407.671Z" fill="#F2F2F2"/>
<path d="M472.107 364.254C502.128 382.741 492.121 407.391 492.121 407.391L472.107 364.254Z" fill="#E6E6E6"/>
<path d="M531.108 389.524C507.481 389.373 504.428 406.943 504.428 406.943L531.108 389.524Z" fill="#E6E6E6"/>
<path d="M149.931 408.848C153.615 408.848 156.602 405.859 156.602 402.172C156.602 398.485 153.615 395.496 149.931 395.496C146.246 395.496 143.259 398.485 143.259 402.172C143.259 405.859 146.246 408.848 149.931 408.848Z" fill="#3F3D56"/>
<path d="M154.783 267.737C154.783 267.737 170.552 219.79 171.765 216.452C172.978 213.114 185.714 218.576 189.05 219.486C192.386 220.397 191.476 223.735 191.476 223.735L174.494 272.896L179.649 275.324L195.418 225.859C204.516 216.452 197.844 215.845 197.844 215.845C197.844 215.845 178.436 209.169 171.158 208.562C163.88 207.955 166.609 216.755 166.609 216.755L149.021 263.489L154.783 267.737Z" fill="#3F3D56"/>
<path d="M192.689 279.269L192.686 279.266C190.448 276.055 187.271 273.617 183.591 272.289C183.461 272.241 183.309 272.186 183.136 272.125C174.782 269.203 116.573 253.474 116.573 253.474C116.573 253.474 105.05 249.226 99.8945 260.758C94.7393 272.289 64.1111 367.881 64.1111 367.881C64.1111 367.881 124.015 399.939 141.479 403.428C142.557 403.688 143.67 403.776 144.775 403.689C147.744 403.278 150.666 402.579 153.5 401.605C156.634 400.582 159.616 399.14 162.364 397.317L196.328 295.656C196.328 295.656 201.18 284.428 192.689 279.269Z" fill="#00305F"/>
<path d="M192.689 279.269L192.686 279.266C190.448 276.055 187.271 273.618 183.591 272.289C183.461 272.241 183.309 272.186 183.136 272.125C185.884 276.944 186.927 284.428 186.927 284.428C186.927 284.428 153.57 383.661 150.537 393.068C148.226 400.239 143.565 402.676 141.479 403.428C142.557 403.688 143.67 403.776 144.775 403.689C147.744 403.278 150.666 402.579 153.5 401.605C154.329 400.654 155.063 399.624 155.692 398.531C155.692 398.531 189.656 296.87 192.689 292.014C195.721 287.159 192.689 279.269 192.689 279.269Z" fill="#3F3D56"/>
<path d="M129.461 409C133.146 409 136.133 406.011 136.133 402.324C136.133 398.637 133.146 395.647 129.461 395.647C125.777 395.647 122.79 398.637 122.79 402.324C122.79 406.011 125.777 409 129.461 409Z" fill="#3F3D56"/>
<path d="M64.7175 380.929C68.4021 380.929 71.389 377.94 71.389 374.253C71.389 370.566 68.4021 367.577 64.7175 367.577C61.033 367.577 58.046 370.566 58.046 374.253C58.046 377.94 61.033 380.929 64.7175 380.929Z" fill="#3F3D56"/>
<path d="M182.313 220.516C179.629 221.366 176.727 221.201 174.157 220.053C171.587 218.906 169.526 216.854 168.366 214.288C167.207 211.721 167.028 208.818 167.864 206.129C168.7 203.439 170.493 201.15 172.903 199.695L196.306 171.135L217.093 174.86L189.093 204.333C189.86 205.819 190.292 207.456 190.359 209.128C190.425 210.799 190.125 212.465 189.478 214.008C188.832 215.551 187.855 216.933 186.617 218.058C185.379 219.182 183.91 220.021 182.313 220.516Z" fill="#A0616A"/>
<path d="M341.817 346.18L356.314 345.952L354.57 395.397H341.82L341.817 346.18Z" fill="#A0616A"/>
<path d="M338.567 391.231L363.678 391.23H363.679C367.924 391.23 371.994 392.918 374.995 395.921C377.996 398.924 379.682 402.997 379.682 407.244V407.765L338.568 407.766L338.567 391.231Z" fill="#2F2E41"/>
<path d="M245.834 333.066L261.671 343.24L229.994 381.376L219.263 374.482L245.834 333.066Z" fill="#A0616A"/>
<path d="M218.776 369.218L239.907 382.794L239.908 382.795C243.479 385.09 245.993 388.71 246.897 392.86C247.801 397.009 247.021 401.349 244.728 404.923L244.447 405.361L209.849 383.132L218.776 369.218Z" fill="#2F2E41"/>
<path d="M240.193 182.083C240.193 182.083 275.378 65.1358 286.686 63.5554C297.994 61.9751 316.213 93.5627 316.213 93.5627C339.835 123.723 364.193 221.42 364.193 221.42C364.193 221.42 323.587 223.963 293.905 239.766C264.222 255.57 229.192 238.966 229.192 238.966L240.193 182.083Z" fill="#3F3D56"/>
<path opacity="0.1" d="M240.193 182.083C240.193 182.083 275.378 65.1357 286.686 63.5554C297.994 61.975 311.586 93.8832 311.586 93.8832C323.356 142.569 364.193 221.42 364.193 221.42C364.193 221.42 323.587 223.962 293.905 239.766C264.222 255.57 229.192 238.966 229.192 238.966L240.193 182.083Z" fill="black"/>
<path d="M269.06 147.093V205.858L262.149 290.984L227.622 355.375L244.101 367.154L291.183 305.904L309.805 245.086L339.05 379.718L361.022 378.148L345.763 191.482L316.806 138.94L269.06 147.093Z" fill="#2F2E41"/>
<path d="M304.536 90.254C315.522 101.248 305.321 113.027 305.321 113.027L317.876 141.296L268.44 154.646L251.163 77.3927L262.934 64.8285C286.475 64.0433 286.488 63.5551 286.488 63.5551C290.613 67.5943 304.536 90.254 304.536 90.254Z" fill="#CCCCCC"/>
<path d="M248.899 69.5907C244.813 72.5985 241.946 76.9795 240.825 81.9307C239.704 86.8818 240.404 92.0714 242.796 96.5481C248.46 107.367 254.552 124.127 251.411 142.525C245.726 175.822 227.504 201.12 217.353 209.244C213.819 212.072 213.696 216.191 214.215 219.148C215.664 227.409 223.668 236.784 229.205 238.664C229.577 238.787 229.968 238.849 230.361 238.845C239.355 238.849 261.479 210.183 286.903 154.186C302.736 119.312 291.245 91.3495 278.817 74.0327C277.185 71.7669 275.121 69.8476 272.743 68.3859C270.365 66.9242 267.721 65.9491 264.963 65.5173C262.206 65.0854 259.391 65.2052 256.68 65.8699C253.97 66.5346 251.418 67.7309 249.173 69.3894L248.899 69.5907Z" fill="#3F3D56"/>
<path d="M272.35 103.306L200.955 197.05L182.122 189.197L249.606 75.3341L272.35 103.306Z" fill="#3F3D56"/>
<path d="M293.528 53.3773H244.422C243.412 53.3762 242.443 52.9741 241.729 52.2594C241.015 51.5446 240.613 50.5755 240.612 49.5647V28.3832C240.61 24.6546 241.342 20.9622 242.767 17.5168C244.191 14.0715 246.28 10.9408 248.914 8.30362C251.548 5.66642 254.675 3.57439 258.117 2.14707C261.56 0.71975 265.249 -0.0148926 268.975 -0.0148926C272.701 -0.0148926 276.39 0.71975 279.832 2.14707C283.275 3.57439 286.402 5.66642 289.036 8.30362C291.67 10.9408 293.759 14.0715 295.183 17.5168C296.608 20.9622 297.34 24.6546 297.338 28.3832V49.5647C297.337 50.5755 296.935 51.5446 296.221 52.2594C295.507 52.9741 294.538 53.3762 293.528 53.3773Z" fill="#2F2E41"/>
<path d="M293.05 42.0561C298.558 31.9717 294.855 19.3278 284.778 13.8152C274.7 8.30254 262.065 12.0087 256.557 22.0931C251.048 32.1775 254.752 44.8214 264.829 50.334C274.906 55.8467 287.541 52.1405 293.05 42.0561Z" fill="#A0616A"/>
<path d="M304.048 30.5013H274.021L273.713 26.1873L272.173 30.5013H267.55L266.939 21.951L263.888 30.5013H254.942V30.0777C254.948 24.1251 257.314 18.4181 261.521 14.2089C265.727 9.99976 271.43 7.63209 277.378 7.62537H281.612C287.56 7.63208 293.263 9.99975 297.469 14.2089C301.675 18.4181 304.041 24.125 304.048 30.0777V30.5013Z" fill="#2F2E41"/>
<path d="M273.775 57.3312C273.549 57.331 273.323 57.3111 273.101 57.2717L251.114 53.3895V17.0253H275.317L274.718 17.7244C266.381 27.4546 272.662 43.2323 277.148 51.7711C277.479 52.3965 277.626 53.1027 277.573 53.8082C277.521 54.5138 277.27 55.1901 276.85 55.7592C276.498 56.2459 276.036 56.6422 275.501 56.9154C274.967 57.1887 274.375 57.3312 273.775 57.3312Z" fill="#2F2E41"/>
<path d="M-52 408.215C-52 408.007 -51.9173 407.807 -51.7702 407.66C-51.623 407.512 -51.4234 407.43 -51.2153 407.43H614.215C614.423 407.43 614.623 407.512 614.77 407.66C614.917 407.807 615 408.007 615 408.215C615 408.423 614.917 408.623 614.77 408.77C614.623 408.917 614.423 409 614.215 409H-51.2153C-51.4234 409 -51.623 408.917 -51.7702 408.77C-51.9173 408.623 -52 408.423 -52 408.215Z" fill="#CBCBCB"/>
</g>
<defs>
<clipPath id="clip0_3_24">
<rect width="667" height="409" fill="white" transform="translate(-52)"/>
</clipPath>
</defs>
</svg>
